<svg width="95" height="54" viewBox="0 0 95 54" fill="none" xmlns="http://www.w3.org/2000/svg">
<path d="M13.4594 0.686457C10.553 0.686457 7.61806 5.67296 7.61806 11.8562C7.61806 18.011 9.69815 23.026 13.0605 23.026H13.6873C17.4201 22.9975 19.5002 18.7233 20.241 16.7003V23.7098H11.2083C5.25304 23.7098 0.4375 18.4099 0.4375 11.8562C0.4375 8.57938 1.63426 5.64446 3.57187 3.50739C5.48099 1.37032 8.15945 0.0310879 11.1229 0.00259399H20.241V7.01219C19.5002 4.9891 17.4201 0.686457 13.6589 0.686457H13.4594Z" fill="black"/>
<path d="M29.9921 21.6298C29.9921 22.4846 30.448 23.2824 31.2173 23.7098H21.5578C22.3271 23.2824 22.783 22.4846 22.783 21.6013V4.16276C22.783 2.85202 21.5863 2.33913 21.5863 2.33913H21.5578C21.5578 2.33913 26.6298 1.65526 29.9921 0.00259399V21.6298Z" fill="black"/>
<path d="M48.1087 5.78694C49.5904 5.78694 50.6732 6.35682 51.7275 7.26864C53.6366 8.92131 53.9215 13.8793 49.8468 13.8793H43.1507H38.5346C38.5061 14.1643 38.4776 14.4492 38.4776 14.7341C38.4776 19.3217 41.441 23.026 43.863 23.026H45.4302C49.1915 23.026 51.2715 18.7233 52.0124 16.7003V23.7098H40.2443C35.2862 23.7098 31.297 19.6922 31.297 14.7341C31.297 9.80463 35.2862 5.78694 40.2443 5.78694H48.1087ZM46.399 10.0326C46.7125 8.80733 46.513 7.55358 45.2877 6.75574C44.7748 6.41381 44.205 6.4708 43.806 6.4708C41.6405 6.55628 39.1615 9.4342 38.5916 13.1955H42.0679C44.0625 13.1955 45.8861 11.9417 46.399 10.0326Z" fill="black"/>
<path d="M73.5149 21.6298C73.5149 22.4846 73.9708 23.2824 74.7117 23.7098H59.7522C56.0764 23.7098 53.113 20.661 53.227 16.9567C53.3124 13.3664 56.4468 10.631 60.0371 10.631C60.0371 10.631 60.0656 10.631 60.1511 10.631C60.6355 10.631 62.5446 10.688 64.2827 11.6568C65.0236 12.0557 65.7645 12.6541 66.3058 13.4804V9.40571C66.3058 8.57938 65.9924 7.83852 65.451 7.32563C64.6247 6.52779 63.3424 6.15736 62.0602 6.72725C61.0344 7.21165 60.721 8.75034 62.0602 9.40571H60.4075H56.3613C55.2501 9.40571 54.5947 8.09497 55.307 7.24014C56.1904 6.21435 57.5296 5.78694 59.0113 5.78694H68.6994C71.3493 5.78694 73.5149 7.92401 73.5149 10.574V21.6298ZM66.3058 23.026V15.5035C66.3058 14.7341 65.9924 14.0218 65.4225 13.5089C65.394 13.5089 65.394 13.5089 65.3655 13.4804C63.9693 12.2836 61.8322 12.7395 61.0059 14.3922C60.6355 15.1616 60.3505 16.1874 60.4075 17.5266C60.55 20.604 63.1715 23.026 66.2774 23.026H66.3058Z" fill="black"/>
<path d="M89.1509 5.78694C90.6326 5.78694 91.7154 6.35682 92.7412 7.26864C94.6503 8.92131 94.9353 13.8793 90.8891 13.8793H84.4494C85.8171 13.5089 87.6122 11.4003 87.5552 9.29173C87.5267 7.981 86.2445 7.04068 85.0477 7.58208C84.3639 7.89551 83.6515 8.37992 83.2526 9.12077V21.6298C83.2526 22.5131 83.7085 23.2824 84.4779 23.7098H74.7898C75.5591 23.2824 76.0435 22.5131 76.0435 21.6298V7.86702C76.0435 7.32563 75.8441 6.84122 75.4452 6.4423L74.7898 5.78694H83.2526V7.981C83.2526 7.981 83.9365 7.12617 85.4467 6.4708C86.3585 6.10037 87.5837 5.78694 89.1509 5.78694Z" fill="black"/>
<path d="M2.66577 30.0429H12.4393C11.8124 30.4418 11.499 31.2111 11.6985 31.952L17.2264 51.6985L19.9333 42.0675C20.0188 41.7255 20.7027 38.6481 20.6742 37.1664C20.6742 36.8815 20.6457 36.5111 20.6457 36.5111C20.5032 34.203 19.8478 31.4676 17.8817 30.0429H25.3472C24.3784 30.4703 23.6376 31.3251 23.3526 32.3509L17.9102 51.784C17.6823 52.5249 18.0242 53.3512 18.7081 53.7501H8.93452C9.47591 53.4367 9.81784 52.8383 9.81784 52.2114C9.81784 52.0405 9.81785 51.898 9.76086 51.727L4.26145 32.0945C4.0335 31.2111 3.43512 30.4988 2.66577 30.0429Z" fill="#FFD92E"/>
<path d="M24.5652 53.7501C25.363 53.3227 25.8189 52.5249 25.8189 51.6415V39.9874C25.8189 38.6766 24.6222 38.1352 24.6222 38.1352H24.5652C24.5652 38.1352 29.6657 37.4514 33.028 35.8272V51.67C33.028 52.5249 33.4839 53.3227 34.2533 53.7501H24.5652ZM29.4092 36.0837C27.7281 36.0837 26.3888 34.7444 26.3888 33.0633C26.3888 31.4106 27.7281 30.0429 29.4092 30.0429C31.0619 30.0429 32.4296 31.4106 32.4296 33.0633C32.4296 34.7444 31.0619 36.0837 29.4092 36.0837Z" fill="#FFD92E"/>
<path d="M51.1439 35.8272C52.6256 35.8272 53.7084 36.3971 54.7627 37.3089C56.6718 38.9616 56.9567 43.9196 52.8821 43.9196H46.1859H41.5698C41.5413 44.2045 41.5128 44.4895 41.5128 44.7744C41.5128 49.362 44.4763 53.0663 46.8983 53.0663H48.4655C52.2267 53.0663 54.3068 48.7636 55.0476 46.7405V53.7501H43.2795C38.3215 53.7501 34.3323 49.7324 34.3323 44.7744C34.3323 39.8449 38.3215 35.8272 43.2795 35.8272H51.1439ZM49.4342 40.0729C49.7477 38.8476 49.5482 37.5939 48.323 36.796C47.8101 36.4541 47.2402 36.5111 46.8413 36.5111C44.6757 36.5965 42.1967 39.4745 41.6268 43.2357H45.1031C47.0977 43.2357 48.9214 41.982 49.4342 40.0729Z" fill="#FFD92E"/>
<path d="M86.36 46.6265C87.2148 44.119 87.5282 36.8815 85.2772 35.8272H91.8594C91.033 36.2546 90.3777 36.9955 90.0642 37.9073L84.6503 53.6931L84.6218 53.7501H83.9095H77.0138L74.4493 46.655L72.0273 53.6931L71.9988 53.7501H71.2865H64.3624L58.578 37.7078C58.2931 36.91 57.7517 36.2546 57.0108 35.8272H66.6989C66.1575 36.2261 65.9295 36.9385 66.1575 37.5654L71.6569 52.6958L73.737 46.6265C73.8225 46.3131 73.9364 45.9427 74.0219 45.5153L71.201 37.7078C70.916 36.91 70.3747 36.2546 69.6623 35.8272H72.6542H79.2364H79.3219C78.7805 36.2261 78.581 36.9385 78.809 37.5654L84.2799 52.6958L86.36 46.6265Z" fill="#FFD92E"/>
</svg>
